<svg width="497" height="531" viewBox="0 0 497 531" fill="none" xmlns="http://www.w3.org/2000/svg">
<path d="M381.065 275.673L224.651 441.236C210.641 456.064 185.833 450.167 179.996 430.62L114.821 212.379C108.984 192.833 126.496 174.297 146.342 179.015L367.931 231.692C387.778 236.411 395.075 260.844 381.065 275.673Z" fill="#F5F5F5" stroke="black" stroke-width="5"/>
<path d="M116.5 193.801L141.5 137.301L411 203.301L387 264.801L116.5 193.801Z" fill="#F5F5F5"/>
<path d="M115 196.301L140 136.301L410 210.801L386 268.301" stroke="black" stroke-width="5"/>
<path d="M405.764 216.371L249.35 381.934C235.34 396.763 210.532 390.866 204.695 371.319L139.52 153.078C133.683 133.531 151.195 114.996 171.041 119.714L392.63 172.391C412.477 177.109 419.774 201.543 405.764 216.371Z" fill="#FFD600" stroke="black" stroke-width="5"/>
</svg>
