<svg width="582" height="118" xmlns="http://www.w3.org/2000/svg" fill="none">

 <g>
  <title>Layer 1</title>
  <rect id="svg_2" stroke-width="2" stroke="#ffffff" fill="#6DF8E7" rx="6" height="97" width="93" y="11" x="111"/>
  <rect id="svg_3" stroke-width="2" stroke="#ffffff" fill="#FFD600" rx="48.5" height="97" width="153" y="11" x="3"/>
  <path id="svg_4" stroke-width="2" stroke="#ffffff" fill="#FFC6EB" d="m409.5,51.7058c6,3.4641 6,12.1242 0,15.5882l-81.75,47.199c-6,3.464 -13.5,-0.866 -13.5,-7.795l0,-94.3964c0,-6.9282 7.5,-11.2583 13.5,-7.7942l81.75,47.1984z"/>
  <path id="svg_5" fill="#ffffff" d="m113.5,59l0,29l-8,0l0,-28c0,-3.9333 -0.733,-6.8333 -2.2,-8.7c-1.4,-1.8667 -3.6,-2.8 -6.6,-2.8c-2.2,0 -4.1,0.4667 -5.7,1.4c-1.6,0.8667 -2.833,2.1667 -3.7,3.9c-0.867,1.7333 -1.3,3.8 -1.3,6.2l0,28l-8,0l0,-28c0,-3.9333 -0.733,-6.8333 -2.2,-8.7c-1.4,-1.8667 -3.6,-2.8 -6.6,-2.8c-2.2,0 -4.1,0.4667 -5.7,1.4c-1.6,0.8667 -2.833,2.1667 -3.7,3.9c-0.8667,1.7333 -1.3,3.8 -1.3,6.2l0,28l-8,0l0,-46l8,0l0,6.7c1.4,-2.6 3.133,-4.5333 5.2,-5.8c2.133,-1.2667 4.633,-1.9 7.5,-1.9c3.2,0 5.933,0.7667 8.2,2.3c2.333,1.4667 4.033,3.5667 5.1,6.3c1.6,-2.8667 3.6,-5 6,-6.4c2.4,-1.4667 5.133,-2.2 8.2,-2.2c3.133,0 5.8,0.7 8,2.1c2.2,1.4 3.867,3.4667 5,6.2c1.2,2.6667 1.8,5.9 1.8,9.7zm32.827,30c-4.266,0 -8.066,-1 -11.4,-3c-3.266,-2.067 -5.833,-4.9 -7.7,-8.5c-1.8,-3.6 -2.7,-7.767 -2.7,-12.5c0,-4.8 0.934,-9 2.8,-12.6c1.934,-3.6 4.6,-6.4 8,-8.4c3.467,-2 7.467,-3 12,-3c4.534,0 8.4,0.9667 11.6,2.9c3.267,1.8667 5.767,4.5667 7.5,8.1c1.734,3.5333 2.6,7.733 2.6,12.6c0,0.467 -0.033,0.967 -0.1,1.5c0,0.467 0,0.767 0,0.9l-39.3,0l0,-6.8l33,0l-3.2,4.6c0.2,-0.333 0.4,-0.833 0.6,-1.5c0.2,-0.733 0.3,-1.333 0.3,-1.8c0,-2.733 -0.566,-5.1 -1.7,-7.1c-1.066,-2 -2.566,-3.5667 -4.5,-4.7c-1.933,-1.1333 -4.2,-1.7 -6.8,-1.7c-3.066,0 -5.7,0.6667 -7.9,2c-2.133,1.2667 -3.8,3.1333 -5,5.6c-1.133,2.4 -1.733,5.367 -1.8,8.9c0,3.6 0.567,6.667 1.7,9.2c1.134,2.533 2.8,4.467 5,5.8c2.2,1.333 4.867,2 8,2c3.134,0 5.9,-0.667 8.3,-2c2.4,-1.4 4.434,-3.5 6.1,-6.3l6.5,4.1c-2.4,3.867 -5.433,6.8 -9.1,8.8c-3.6,1.933 -7.866,2.9 -12.8,2.9zm68.165,-79l8,0l0,78l-8,0l0,-78zm-38.5,55c0,-5 1.034,-9.2667 3.1,-12.8c2.067,-3.6 4.834,-6.3667 8.3,-8.3c3.467,-1.9333 7.267,-2.9 11.4,-2.9c3.867,0 7.234,0.9667 10.1,2.9c2.867,1.9333 5.1,4.7 6.7,8.3c1.667,3.5333 2.5,7.8 2.5,12.8c0,4.933 -0.833,9.2 -2.5,12.8c-1.6,3.6 -3.833,6.367 -6.7,8.3c-2.866,1.933 -6.233,2.9 -10.1,2.9c-4.133,0 -7.933,-0.967 -11.4,-2.9c-3.466,-1.933 -6.233,-4.7 -8.3,-8.3c-2.066,-3.6 -3.1,-7.867 -3.1,-12.8zm8.1,0c0,3.533 0.7,6.533 2.1,9c1.467,2.467 3.4,4.333 5.8,5.6c2.4,1.267 5,1.9 7.8,1.9c2.334,0 4.634,-0.633 6.9,-1.9c2.267,-1.267 4.134,-3.133 5.6,-5.6c1.467,-2.467 2.2,-5.467 2.2,-9c0,-3.533 -0.733,-6.533 -2.2,-9c-1.466,-2.4667 -3.333,-4.3333 -5.6,-5.6c-2.266,-1.2667 -4.566,-1.9 -6.9,-1.9c-2.8,0 -5.4,0.6333 -7.8,1.9c-2.4,1.2667 -4.333,3.1333 -5.8,5.6c-1.4,2.467 -2.1,5.467 -2.1,9zm52.931,-42c0,-1.5333 0.534,-2.8333 1.6,-3.9c1.134,-1.0667 2.434,-1.6 3.9,-1.6c1.534,0 2.834,0.5333 3.9,1.6c1.067,1.0667 1.6,2.3667 1.6,3.9c0,1.4667 -0.533,2.7667 -1.6,3.9c-1.066,1.0667 -2.366,1.6 -3.9,1.6c-1.466,0 -2.766,-0.5333 -3.9,-1.6c-1.066,-1.1333 -1.6,-2.4333 -1.6,-3.9zm1.5,19l8,0l0,46l-8,0l0,-46zm28.077,31.8c0,1.733 0.4,3.233 1.2,4.5c0.867,1.267 2.033,2.233 3.5,2.9c1.533,0.6 3.267,0.9 5.2,0.9c2.467,0 4.667,-0.5 6.6,-1.5c2,-1 3.567,-2.4 4.7,-4.2c1.2,-1.867 1.8,-4 1.8,-6.4l1.6,6c0,2.933 -0.9,5.367 -2.7,7.3c-1.733,1.933 -3.9,3.367 -6.5,4.3c-2.533,0.933 -5.067,1.4 -7.6,1.4c-2.8,0 -5.433,-0.567 -7.9,-1.7c-2.4,-1.2 -4.333,-2.9 -5.8,-5.1c-1.467,-2.2 -2.2,-4.867 -2.2,-8c0,-4.467 1.567,-8.033 4.7,-10.7c3.2,-2.733 7.633,-4.1 13.3,-4.1c3.333,0 6.1,0.4 8.3,1.2c2.267,0.733 4.067,1.6 5.4,2.6c1.333,0.933 2.233,1.7 2.7,2.3l0,4.7c-2.333,-1.6 -4.733,-2.733 -7.2,-3.4c-2.467,-0.733 -5.1,-1.1 -7.9,-1.1c-2.6,0 -4.733,0.333 -6.4,1c-1.6,0.667 -2.8,1.6 -3.6,2.8c-0.8,1.2 -1.2,2.633 -1.2,4.3zm-1.2,-21.2l-3.9,-5.9c1.733,-1.2667 4.1,-2.5333 7.1,-3.8c3.067,-1.2667 6.733,-1.9 11,-1.9c3.6,0 6.733,0.5667 9.4,1.7c2.733,1.0667 4.833,2.6333 6.3,4.7c1.533,2.0667 2.3,4.6 2.3,7.6l0,33l-8,0l0,-31.9c0,-1.6 -0.267,-2.9 -0.8,-3.9c-0.533,-1.0667 -1.3,-1.9 -2.3,-2.5c-0.933,-0.6 -2.033,-1.0333 -3.3,-1.3c-1.267,-0.2667 -2.6,-0.4 -4,-0.4c-2.267,0 -4.333,0.2667 -6.2,0.8c-1.8,0.5333 -3.333,1.1667 -4.6,1.9c-1.267,0.7333 -2.267,1.3667 -3,1.9z"/>
  <path id="svg_6" fill="#ffffff" d="m361.5,42l23,0l0,7.5l-23,0l0,-7.5zm7.5,-16l8,0l0,62l-8,0l0,-62zm31.523,-16l0,78l-8,0l0,-78l8,0zm21.5,50c0,-3.8 -0.833,-6.6667 -2.5,-8.6c-1.6,-1.9333 -4.033,-2.9 -7.3,-2.9c-2.333,0 -4.4,0.5 -6.2,1.5c-1.733,1 -3.1,2.3667 -4.1,4.1c-0.933,1.7333 -1.4,3.7 -1.4,5.9l-2.6,0c0,-3.6667 0.7,-6.9 2.1,-9.7c1.4,-2.8667 3.3,-5.1333 5.7,-6.8c2.467,-1.6667 5.3,-2.5 8.5,-2.5c3.2,0 5.967,0.6667 8.3,2c2.4,1.3333 4.234,3.3333 5.5,6c1.334,2.6667 2,6 2,10l0,29l-8,0l0,-28zm40.84,29c-4.267,0 -8.067,-1 -11.4,-3c-3.267,-2.067 -5.834,-4.9 -7.7,-8.5c-1.8,-3.6 -2.7,-7.767 -2.7,-12.5c0,-4.8 0.933,-9 2.8,-12.6c1.933,-3.6 4.6,-6.4 8,-8.4c3.466,-2 7.466,-3 12,-3c4.533,0 8.4,0.9667 11.6,2.9c3.266,1.8667 5.766,4.5667 7.5,8.1c1.733,3.5333 2.6,7.733 2.6,12.6c0,0.467 -0.034,0.967 -0.1,1.5c0,0.467 0,0.767 0,0.9l-39.3,0l0,-6.8l33,0l-3.2,4.6c0.2,-0.333 0.4,-0.833 0.6,-1.5c0.2,-0.733 0.3,-1.333 0.3,-1.8c0,-2.733 -0.567,-5.1 -1.7,-7.1c-1.067,-2 -2.567,-3.5667 -4.5,-4.7c-1.934,-1.1333 -4.2,-1.7 -6.8,-1.7c-3.067,0 -5.7,0.6667 -7.9,2c-2.134,1.2667 -3.8,3.1333 -5,5.6c-1.134,2.4 -1.734,5.367 -1.8,8.9c0,3.6 0.566,6.667 1.7,9.2c1.133,2.533 2.8,4.467 5,5.8c2.2,1.333 4.866,2 8,2c3.133,0 5.9,-0.667 8.3,-2c2.4,-1.4 4.433,-3.5 6.1,-6.3l6.5,4.1c-2.4,3.867 -5.434,6.8 -9.1,8.8c-3.6,1.933 -7.867,2.9 -12.8,2.9zm33.164,-79l8,0l0,78l-8,0l0,-78zm25,32l10,0l-20,19l22,27l-10,0l-22,-27l20,-19zm35.878,47c-4.266,0 -8.066,-1 -11.4,-3c-3.266,-2.067 -5.833,-4.9 -7.7,-8.5c-1.8,-3.6 -2.7,-7.767 -2.7,-12.5c0,-4.8 0.934,-9 2.8,-12.6c1.934,-3.6 4.6,-6.4 8,-8.4c3.467,-2 7.467,-3 12,-3c4.534,0 8.4,0.9667 11.6,2.9c3.267,1.8667 5.767,4.5667 7.5,8.1c1.734,3.5333 2.6,7.733 2.6,12.6c0,0.467 -0.033,0.967 -0.1,1.5c0,0.467 0,0.767 0,0.9l-39.3,0l0,-6.8l33,0l-3.2,4.6c0.2,-0.333 0.4,-0.833 0.6,-1.5c0.2,-0.733 0.3,-1.333 0.3,-1.8c0,-2.733 -0.566,-5.1 -1.7,-7.1c-1.066,-2 -2.566,-3.5667 -4.5,-4.7c-1.933,-1.1333 -4.2,-1.7 -6.8,-1.7c-3.066,0 -5.7,0.6667 -7.9,2c-2.133,1.2667 -3.8,3.1333 -5,5.6c-1.133,2.4 -1.733,5.367 -1.8,8.9c0,3.6 0.567,6.667 1.7,9.2c1.134,2.533 2.8,4.467 5,5.8c2.2,1.333 4.867,2 8,2c3.134,0 5.9,-0.667 8.3,-2c2.4,-1.4 4.434,-3.5 6.1,-6.3l6.5,4.1c-2.4,3.867 -5.433,6.8 -9.1,8.8c-3.6,1.933 -7.866,2.9 -12.8,2.9z"/>
 </g>
</svg>