<svg width="295" height="78" viewBox="0 0 295 78" fill="none" xmlns="http://www.w3.org/2000/svg">
<rect x="54.3687" y="14.599" width="47.8242" height="49.8379" rx="3.52389" fill="#6DF8E7"/>
<rect y="14.599" width="78.029" height="49.8379" rx="24.9189" fill="#FFD600"/>
<path d="M205.393 35.1583C208.749 37.0959 208.749 41.94 205.393 43.8776L164.239 67.6379C160.883 69.5755 156.687 67.1535 156.687 63.2782L156.687 15.7577C156.687 11.8824 160.883 9.46034 164.239 11.398L205.393 35.1583Z" fill="#FFC6EB"/>
<path d="M56.1308 39.401V54H52.1034V39.9044C52.1034 37.9243 51.7343 36.4644 50.9959 35.5247C50.2912 34.585 49.1837 34.1152 47.6734 34.1152C46.5659 34.1152 45.6094 34.3501 44.804 34.82C43.9985 35.2563 43.3776 35.9107 42.9413 36.7833C42.505 37.6559 42.2869 38.6962 42.2869 39.9044V54H38.2596V39.9044C38.2596 37.9243 37.8904 36.4644 37.1521 35.5247C36.4473 34.585 35.3398 34.1152 33.8296 34.1152C32.722 34.1152 31.7656 34.3501 30.9601 34.82C30.1546 35.2563 29.5338 35.9107 29.0975 36.7833C28.6612 37.6559 28.443 38.6962 28.443 39.9044V54H24.4157V30.843H28.443V34.2159C29.1478 32.907 30.0204 31.9337 31.0608 31.2961C32.1347 30.6584 33.3933 30.3396 34.8364 30.3396C36.4473 30.3396 37.8233 30.7255 38.9644 31.4974C40.139 32.2358 40.9948 33.2929 41.5318 34.6689C42.3372 33.2258 43.3441 32.1519 44.5523 31.4471C45.7604 30.7088 47.1364 30.3396 48.6802 30.3396C50.2576 30.3396 51.6 30.692 52.7075 31.3968C53.815 32.1015 54.6541 33.1419 55.2246 34.5179C55.8287 35.8604 56.1308 37.4881 56.1308 39.401ZM72.6565 54.5034C70.5086 54.5034 68.5956 54 66.9176 52.9932C65.2731 51.9528 63.981 50.5265 63.0413 48.7142C62.1351 46.9019 61.6821 44.8043 61.6821 42.4215C61.6821 40.0051 62.1519 37.8908 63.0916 36.0785C64.0649 34.2662 65.4073 32.8567 67.1189 31.8498C68.8641 30.843 70.8777 30.3396 73.1599 30.3396C75.442 30.3396 77.3885 30.8262 78.9995 31.7995C80.6439 32.7392 81.9025 34.0984 82.7751 35.8771C83.6476 37.6559 84.0839 39.7702 84.0839 42.2201C84.0839 42.4551 84.0672 42.7068 84.0336 42.9753C84.0336 43.2102 84.0336 43.3612 84.0336 43.4283H64.2495V40.0051H80.8621L79.2512 42.3208C79.3519 42.153 79.4525 41.9013 79.5532 41.5657C79.6539 41.1965 79.7042 40.8945 79.7042 40.6596C79.7042 39.2836 79.419 38.0922 78.8484 37.0853C78.3115 36.0785 77.5563 35.2898 76.5831 34.7193C75.6098 34.1487 74.4687 33.8635 73.1599 33.8635C71.6161 33.8635 70.2904 34.1991 69.1829 34.8703C68.109 35.508 67.2699 36.4477 66.6658 37.6894C66.0953 38.8976 65.7933 40.3911 65.7597 42.1698C65.7597 43.9821 66.045 45.5259 66.6155 46.8012C67.186 48.0765 68.0251 49.0498 69.1326 49.721C70.2401 50.3922 71.5825 50.7278 73.1599 50.7278C74.7372 50.7278 76.13 50.3922 77.3382 49.721C78.5464 49.0162 79.57 47.959 80.409 46.5495L83.6812 48.6135C82.473 50.56 80.946 52.0367 79.1001 53.0435C77.2879 54.0168 75.14 54.5034 72.6565 54.5034ZM106.972 14.7338H110.999V54H106.972V14.7338ZM87.5901 42.4215C87.5901 39.9044 88.1103 37.7565 89.1507 35.9778C90.1911 34.1655 91.5839 32.7728 93.329 31.7995C95.0742 30.8262 96.9872 30.3396 99.0679 30.3396C101.014 30.3396 102.709 30.8262 104.152 31.7995C105.596 32.7728 106.72 34.1655 107.525 35.9778C108.364 37.7565 108.784 39.9044 108.784 42.4215C108.784 44.905 108.364 47.0529 107.525 48.8652C106.72 50.6775 105.596 52.0703 104.152 53.0435C102.709 54.0168 101.014 54.5034 99.0679 54.5034C96.9872 54.5034 95.0742 54.0168 93.329 53.0435C91.5839 52.0703 90.1911 50.6775 89.1507 48.8652C88.1103 47.0529 87.5901 44.905 87.5901 42.4215ZM91.6678 42.4215C91.6678 44.2002 92.0202 45.7105 92.7249 46.9522C93.4633 48.194 94.4365 49.1337 95.6447 49.7713C96.8529 50.409 98.1618 50.7278 99.5714 50.7278C100.746 50.7278 101.904 50.409 103.045 49.7713C104.186 49.1337 105.126 48.194 105.864 46.9522C106.602 45.7105 106.972 44.2002 106.972 42.4215C106.972 40.6428 106.602 39.1325 105.864 37.8908C105.126 36.649 104.186 35.7093 103.045 35.0717C101.904 34.434 100.746 34.1152 99.5714 34.1152C98.1618 34.1152 96.8529 34.434 95.6447 35.0717C94.4365 35.7093 93.4633 36.649 92.7249 37.8908C92.0202 39.1325 91.6678 40.6428 91.6678 42.4215ZM118.314 21.2782C118.314 20.5063 118.583 19.8518 119.12 19.3148C119.69 18.7779 120.344 18.5094 121.083 18.5094C121.855 18.5094 122.509 18.7779 123.046 19.3148C123.583 19.8518 123.852 20.5063 123.852 21.2782C123.852 22.0165 123.583 22.6709 123.046 23.2415C122.509 23.7784 121.855 24.0469 121.083 24.0469C120.344 24.0469 119.69 23.7784 119.12 23.2415C118.583 22.6709 118.314 22.0165 118.314 21.2782ZM119.069 30.843H123.096V54H119.069V30.843ZM133.203 46.8515C133.203 47.7241 133.405 48.4792 133.807 49.1169C134.244 49.7546 134.831 50.2412 135.569 50.5768C136.341 50.8788 137.214 51.0299 138.187 51.0299C139.429 51.0299 140.536 50.7782 141.51 50.2747C142.516 49.7713 143.305 49.0666 143.876 48.1604C144.48 47.2207 144.782 46.1468 144.782 44.9386L145.587 47.959C145.587 49.4357 145.134 50.6607 144.228 51.634C143.355 52.6072 142.265 53.3288 140.956 53.7986C139.681 54.2685 138.405 54.5034 137.13 54.5034C135.72 54.5034 134.395 54.2181 133.153 53.6476C131.945 53.0435 130.971 52.1877 130.233 51.0802C129.495 49.9727 129.126 48.6303 129.126 47.0529C129.126 44.8043 129.914 43.0088 131.492 41.6664C133.103 40.2904 135.334 39.6024 138.187 39.6024C139.865 39.6024 141.258 39.8038 142.365 40.2065C143.506 40.5757 144.413 41.0119 145.084 41.5154C145.755 41.9852 146.208 42.3712 146.443 42.6732V45.0392C145.268 44.2338 144.06 43.6633 142.818 43.3276C141.577 42.9585 140.251 42.7739 138.841 42.7739C137.533 42.7739 136.459 42.9417 135.62 43.2773C134.814 43.6129 134.21 44.0828 133.807 44.6869C133.405 45.291 133.203 46.0125 133.203 46.8515ZM132.599 36.1792L130.636 33.209C131.508 32.5714 132.7 31.9337 134.21 31.2961C135.754 30.6584 137.6 30.3396 139.748 30.3396C141.56 30.3396 143.137 30.6249 144.48 31.1954C145.856 31.7324 146.913 32.521 147.651 33.5614C148.423 34.6018 148.809 35.8771 148.809 37.3874V54H144.782V37.9411C144.782 37.1357 144.648 36.4812 144.379 35.9778C144.111 35.4408 143.725 35.0213 143.221 34.7193C142.751 34.4172 142.198 34.1991 141.56 34.0648C140.922 33.9306 140.251 33.8635 139.546 33.8635C138.405 33.8635 137.365 33.9977 136.425 34.2662C135.519 34.5347 134.747 34.8535 134.109 35.2227C133.472 35.5919 132.968 35.9107 132.599 36.1792Z" fill="black"/>
<path d="M180.977 30.843H192.556V34.6186H180.977V30.843ZM184.753 22.7884H188.78V54H184.753V22.7884ZM200.622 14.7338V54H196.595V14.7338H200.622ZM211.445 39.9044C211.445 37.9915 211.026 36.5484 210.187 35.5751C209.381 34.6018 208.156 34.1152 206.512 34.1152C205.337 34.1152 204.297 34.3669 203.391 34.8703C202.518 35.3737 201.83 36.0617 201.327 36.9343C200.857 37.8069 200.622 38.7969 200.622 39.9044H199.313C199.313 38.0586 199.665 36.4309 200.37 35.0213C201.075 33.5782 202.032 32.4371 203.24 31.5981C204.481 30.7591 205.908 30.3396 207.519 30.3396C209.13 30.3396 210.522 30.6752 211.697 31.3464C212.905 32.0176 213.828 33.0245 214.466 34.3669C215.137 35.7093 215.473 37.3874 215.473 39.401V54H211.445V39.9044ZM232.004 54.5034C229.856 54.5034 227.943 54 226.265 52.9932C224.621 51.9528 223.329 50.5265 222.389 48.7142C221.483 46.9019 221.03 44.8043 221.03 42.4215C221.03 40.0051 221.5 37.8908 222.439 36.0785C223.413 34.2662 224.755 32.8567 226.467 31.8498C228.212 30.843 230.226 30.3396 232.508 30.3396C234.79 30.3396 236.736 30.8262 238.347 31.7995C239.992 32.7392 241.25 34.0984 242.123 35.8771C242.995 37.6559 243.432 39.7702 243.432 42.2201C243.432 42.4551 243.415 42.7068 243.381 42.9753C243.381 43.2102 243.381 43.3612 243.381 43.4283H223.597V40.0051H240.21L238.599 42.3208C238.7 42.153 238.8 41.9013 238.901 41.5657C239.002 41.1965 239.052 40.8945 239.052 40.6596C239.052 39.2836 238.767 38.0922 238.196 37.0853C237.659 36.0785 236.904 35.2898 235.931 34.7193C234.958 34.1487 233.817 33.8635 232.508 33.8635C230.964 33.8635 229.638 34.1991 228.531 34.8703C227.457 35.508 226.618 36.4477 226.014 37.6894C225.443 38.8976 225.141 40.3911 225.107 42.1698C225.107 43.9821 225.393 45.5259 225.963 46.8012C226.534 48.0765 227.373 49.0498 228.48 49.721C229.588 50.3922 230.93 50.7278 232.508 50.7278C234.085 50.7278 235.478 50.3922 236.686 49.721C237.894 49.0162 238.918 47.959 239.757 46.5495L243.029 48.6135C241.821 50.56 240.294 52.0367 238.448 53.0435C236.636 54.0168 234.488 54.5034 232.004 54.5034ZM248.7 14.7338H252.727V54H248.7V14.7338ZM261.285 30.843H266.319L256.251 40.4079L267.326 54H262.292L251.217 40.4079L261.285 30.843ZM279.347 54.5034C277.199 54.5034 275.286 54 273.608 52.9932C271.963 51.9528 270.671 50.5265 269.732 48.7142C268.825 46.9019 268.372 44.8043 268.372 42.4215C268.372 40.0051 268.842 37.8908 269.782 36.0785C270.755 34.2662 272.098 32.8567 273.809 31.8498C275.554 30.843 277.568 30.3396 279.85 30.3396C282.132 30.3396 284.079 30.8262 285.69 31.7995C287.334 32.7392 288.593 34.0984 289.465 35.8771C290.338 37.6559 290.774 39.7702 290.774 42.2201C290.774 42.4551 290.757 42.7068 290.724 42.9753C290.724 43.2102 290.724 43.3612 290.724 43.4283H270.94V40.0051H287.552L285.941 42.3208C286.042 42.153 286.143 41.9013 286.243 41.5657C286.344 41.1965 286.394 40.8945 286.394 40.6596C286.394 39.2836 286.109 38.0922 285.539 37.0853C285.002 36.0785 284.247 35.2898 283.273 34.7193C282.3 34.1487 281.159 33.8635 279.85 33.8635C278.306 33.8635 276.981 34.1991 275.873 34.8703C274.799 35.508 273.96 36.4477 273.356 37.6894C272.786 38.8976 272.483 40.3911 272.45 42.1698C272.45 43.9821 272.735 45.5259 273.306 46.8012C273.876 48.0765 274.715 49.0498 275.823 49.721C276.93 50.3922 278.273 50.7278 279.85 50.7278C281.427 50.7278 282.82 50.3922 284.028 49.721C285.237 49.0162 286.26 47.959 287.099 46.5495L290.371 48.6135C289.163 50.56 287.636 52.0367 285.79 53.0435C283.978 54.0168 281.83 54.5034 279.347 54.5034Z" fill="black"/>
</svg>
