<svg width="308" height="119" viewBox="0 0 308 119" fill="none" xmlns="http://www.w3.org/2000/svg">
<rect x="92.575" y="54.8726" width="47.8242" height="49.8379" rx="3.52389" transform="rotate(20.3288 92.575 54.8726)" fill="#60D8C9"/>
<rect y="14.9853" width="78.029" height="49.8379" rx="24.9189" transform="rotate(-11.0723 0 14.9853)" fill="#FFD600"/>
<path d="M217.452 52.187C220.809 54.1247 220.809 58.9687 217.452 60.9064L176.298 84.6667C172.942 86.6043 168.747 84.1822 168.747 80.307L168.747 32.7864C168.747 28.9112 172.942 26.4891 176.298 28.4267L217.452 52.187Z" fill="#E07CBE"/>
<path d="M68.1903 56.4298V71.0288H64.163V56.9332C64.163 54.9531 63.7938 53.4932 63.0555 52.5535C62.3507 51.6138 61.2432 51.144 59.733 51.144C58.6255 51.144 57.669 51.3789 56.8635 51.8487C56.0581 52.285 55.4372 52.9395 55.0009 53.812C54.5646 54.6846 54.3465 55.725 54.3465 56.9332V71.0288H50.3192V56.9332C50.3192 54.9531 49.95 53.4932 49.2117 52.5535C48.5069 51.6138 47.3994 51.144 45.8891 51.144C44.7816 51.144 43.8251 51.3789 43.0197 51.8487C42.2142 52.285 41.5933 52.9395 41.157 53.812C40.7208 54.6846 40.5026 55.725 40.5026 56.9332V71.0288H36.4753V47.8718H40.5026V51.2446C41.2074 49.9358 42.08 48.9625 43.1204 48.3248C44.1943 47.6872 45.4528 47.3684 46.896 47.3684C48.5069 47.3684 49.8829 47.7543 51.0239 48.5262C52.1986 49.2645 53.0544 50.3217 53.5913 51.6977C54.3968 50.2546 55.4036 49.1806 56.6118 48.4759C57.82 47.7375 59.196 47.3684 60.7398 47.3684C62.3172 47.3684 63.6596 47.7207 64.7671 48.4255C65.8746 49.1303 66.7136 50.1707 67.2842 51.5467C67.8883 52.8891 68.1903 54.5168 68.1903 56.4298ZM84.716 71.5322C82.5681 71.5322 80.6552 71.0288 78.9771 70.0219C77.3326 68.9816 76.0405 67.5552 75.1008 65.7429C74.1947 63.9306 73.7416 61.8331 73.7416 59.4503C73.7416 57.0339 74.2115 54.9195 75.1512 53.1073C76.1244 51.295 77.4669 49.8854 79.1785 48.8786C80.9237 47.8718 82.9373 47.3684 85.2194 47.3684C87.5016 47.3684 89.4481 47.855 91.059 48.8283C92.7035 49.768 93.962 51.1272 94.8346 52.9059C95.7072 54.6846 96.1435 56.799 96.1435 59.2489C96.1435 59.4838 96.1267 59.7355 96.0932 60.004C96.0932 60.2389 96.0932 60.39 96.0932 60.4571H76.309V57.0339H92.9217L91.3107 59.3496C91.4114 59.1818 91.5121 58.9301 91.6128 58.5945C91.7135 58.2253 91.7638 57.9232 91.7638 57.6883C91.7638 56.3123 91.4785 55.1209 90.908 54.1141C90.371 53.1073 89.6159 52.3186 88.6427 51.748C87.6694 51.1775 86.5283 50.8922 85.2194 50.8922C83.6756 50.8922 82.35 51.2279 81.2425 51.8991C80.1685 52.5367 79.3295 53.4764 78.7254 54.7182C78.1549 55.9264 77.8528 57.4198 77.8193 59.1986C77.8193 61.0108 78.1045 62.5546 78.6751 63.83C79.2456 65.1053 80.0846 66.0785 81.1921 66.7498C82.2996 67.421 83.6421 67.7566 85.2194 67.7566C86.7968 67.7566 88.1896 67.421 89.3978 66.7498C90.606 66.045 91.6296 64.9878 92.4686 63.5783L95.7408 65.6422C94.5326 67.5888 93.0056 69.0655 91.1597 70.0723C89.3474 71.0455 87.1995 71.5322 84.716 71.5322ZM119.031 31.7626H123.058V71.0288H119.031V31.7626ZM99.6497 59.4503C99.6497 56.9332 100.17 54.7853 101.21 53.0066C102.251 51.1943 103.643 49.8015 105.389 48.8283C107.134 47.855 109.047 47.3684 111.128 47.3684C113.074 47.3684 114.769 47.855 116.212 48.8283C117.655 49.8015 118.779 51.1943 119.585 53.0066C120.424 54.7853 120.843 56.9332 120.843 59.4503C120.843 61.9338 120.424 64.0817 119.585 65.894C118.779 67.7062 117.655 69.099 116.212 70.0723C114.769 71.0455 113.074 71.5322 111.128 71.5322C109.047 71.5322 107.134 71.0455 105.389 70.0723C103.643 69.099 102.251 67.7062 101.21 65.894C100.17 64.0817 99.6497 61.9338 99.6497 59.4503ZM103.727 59.4503C103.727 61.229 104.08 62.7392 104.785 63.981C105.523 65.2227 106.496 66.1624 107.704 66.8001C108.912 67.4378 110.221 67.7566 111.631 67.7566C112.806 67.7566 113.963 67.4378 115.104 66.8001C116.246 66.1624 117.185 65.2227 117.924 63.981C118.662 62.7392 119.031 61.229 119.031 59.4503C119.031 57.6715 118.662 56.1613 117.924 54.9195C117.185 53.6778 116.246 52.7381 115.104 52.1004C113.963 51.4628 112.806 51.144 111.631 51.144C110.221 51.144 108.912 51.4628 107.704 52.1004C106.496 52.7381 105.523 53.6778 104.785 54.9195C104.08 56.1613 103.727 57.6715 103.727 59.4503ZM130.374 38.3069C130.374 37.535 130.642 36.8806 131.179 36.3436C131.75 35.8066 132.404 35.5381 133.142 35.5381C133.914 35.5381 134.569 35.8066 135.106 36.3436C135.643 36.8806 135.911 37.535 135.911 38.3069C135.911 39.0453 135.643 39.6997 135.106 40.2702C134.569 40.8072 133.914 41.0757 133.142 41.0757C132.404 41.0757 131.75 40.8072 131.179 40.2702C130.642 39.6997 130.374 39.0453 130.374 38.3069ZM131.129 47.8718H135.156V71.0288H131.129V47.8718ZM145.263 63.8803C145.263 64.7529 145.464 65.508 145.867 66.1457C146.303 66.7833 146.891 67.2699 147.629 67.6056C148.401 67.9076 149.273 68.0586 150.247 68.0586C151.488 68.0586 152.596 67.8069 153.569 67.3035C154.576 66.8001 155.365 66.0953 155.935 65.1892C156.539 64.2495 156.841 63.1755 156.841 61.9673L157.647 64.9878C157.647 66.4645 157.194 67.6895 156.288 68.6627C155.415 69.636 154.324 70.3575 153.015 70.8274C151.74 71.2972 150.465 71.5322 149.189 71.5322C147.78 71.5322 146.454 71.2469 145.212 70.6764C144.004 70.0723 143.031 69.2165 142.293 68.109C141.554 67.0015 141.185 65.659 141.185 64.0817C141.185 61.8331 141.974 60.0376 143.551 58.6951C145.162 57.3192 147.394 56.6312 150.247 56.6312C151.925 56.6312 153.317 56.8325 154.425 57.2352C155.566 57.6044 156.472 58.0407 157.143 58.5441C157.815 59.014 158.268 59.3999 158.503 59.702V62.068C157.328 61.2626 156.12 60.692 154.878 60.3564C153.636 59.9872 152.311 59.8027 150.901 59.8027C149.592 59.8027 148.518 59.9705 147.679 60.3061C146.874 60.6417 146.27 61.1115 145.867 61.7156C145.464 62.3197 145.263 63.0413 145.263 63.8803ZM144.659 53.2079L142.695 50.2378C143.568 49.6002 144.759 48.9625 146.27 48.3248C147.813 47.6872 149.659 47.3684 151.807 47.3684C153.619 47.3684 155.197 47.6536 156.539 48.2242C157.915 48.7611 158.972 49.5498 159.711 50.5902C160.483 51.6306 160.869 52.9059 160.869 54.4161V71.0288H156.841V54.9699C156.841 54.1644 156.707 53.51 156.439 53.0066C156.17 52.4696 155.784 52.0501 155.281 51.748C154.811 51.446 154.257 51.2279 153.619 51.0936C152.982 50.9594 152.311 50.8922 151.606 50.8922C150.465 50.8922 149.424 51.0265 148.485 51.295C147.579 51.5635 146.807 51.8823 146.169 52.2515C145.531 52.6206 145.028 52.9395 144.659 53.2079Z" fill="white"/>
<path d="M193.037 47.8718H204.615V51.6474H193.037V47.8718ZM196.812 39.8172H200.84V71.0288H196.812V39.8172ZM212.682 31.7626V71.0288H208.654V31.7626H212.682ZM223.505 56.9332C223.505 55.0202 223.086 53.5771 222.247 52.6038C221.441 51.6306 220.216 51.144 218.572 51.144C217.397 51.144 216.357 51.3957 215.451 51.8991C214.578 52.4025 213.89 53.0905 213.387 53.9631C212.917 54.8356 212.682 55.8257 212.682 56.9332H211.373C211.373 55.0874 211.725 53.4597 212.43 52.0501C213.135 50.607 214.091 49.4659 215.3 48.6269C216.541 47.7879 217.968 47.3684 219.579 47.3684C221.189 47.3684 222.582 47.704 223.757 48.3752C224.965 49.0464 225.888 50.0532 226.526 51.3957C227.197 52.7381 227.532 54.4161 227.532 56.4298V71.0288H223.505V56.9332ZM244.064 71.5322C241.916 71.5322 240.003 71.0288 238.325 70.0219C236.681 68.9816 235.389 67.5552 234.449 65.7429C233.543 63.9306 233.09 61.8331 233.09 59.4503C233.09 57.0339 233.56 54.9195 234.499 53.1073C235.472 51.295 236.815 49.8854 238.527 48.8786C240.272 47.8718 242.285 47.3684 244.567 47.3684C246.85 47.3684 248.796 47.855 250.407 48.8283C252.052 49.768 253.31 51.1272 254.183 52.9059C255.055 54.6846 255.492 56.799 255.492 59.2489C255.492 59.4838 255.475 59.7355 255.441 60.004C255.441 60.2389 255.441 60.39 255.441 60.4571H235.657V57.0339H252.27L250.659 59.3496C250.759 59.1818 250.86 58.9301 250.961 58.5945C251.061 58.2253 251.112 57.9232 251.112 57.6883C251.112 56.3123 250.827 55.1209 250.256 54.1141C249.719 53.1073 248.964 52.3186 247.991 51.748C247.017 51.1775 245.876 50.8922 244.567 50.8922C243.024 50.8922 241.698 51.2279 240.591 51.8991C239.517 52.5367 238.678 53.4764 238.073 54.7182C237.503 55.9264 237.201 57.4198 237.167 59.1986C237.167 61.0108 237.453 62.5546 238.023 63.83C238.594 65.1053 239.433 66.0785 240.54 66.7498C241.648 67.421 242.99 67.7566 244.567 67.7566C246.145 67.7566 247.538 67.421 248.746 66.7498C249.954 66.045 250.978 64.9878 251.817 63.5783L255.089 65.6422C253.881 67.5888 252.354 69.0655 250.508 70.0723C248.695 71.0455 246.548 71.5322 244.064 71.5322ZM260.76 31.7626H264.787V71.0288H260.76V31.7626ZM273.345 47.8718H278.379L268.311 57.4366L279.386 71.0288H274.352L263.277 57.4366L273.345 47.8718ZM291.407 71.5322C289.259 71.5322 287.346 71.0288 285.668 70.0219C284.023 68.9816 282.731 67.5552 281.791 65.7429C280.885 63.9306 280.432 61.8331 280.432 59.4503C280.432 57.0339 280.902 54.9195 281.842 53.1073C282.815 51.295 284.157 49.8854 285.869 48.8786C287.614 47.8718 289.628 47.3684 291.91 47.3684C294.192 47.3684 296.139 47.855 297.75 48.8283C299.394 49.768 300.653 51.1272 301.525 52.9059C302.398 54.6846 302.834 56.799 302.834 59.2489C302.834 59.4838 302.817 59.7355 302.784 60.004C302.784 60.2389 302.784 60.39 302.784 60.4571H283V57.0339H299.612L298.001 59.3496C298.102 59.1818 298.203 58.9301 298.303 58.5945C298.404 58.2253 298.454 57.9232 298.454 57.6883C298.454 56.3123 298.169 55.1209 297.598 54.1141C297.062 53.1073 296.306 52.3186 295.333 51.748C294.36 51.1775 293.219 50.8922 291.91 50.8922C290.366 50.8922 289.04 51.2279 287.933 51.8991C286.859 52.5367 286.02 53.4764 285.416 54.7182C284.845 55.9264 284.543 57.4198 284.51 59.1986C284.51 61.0108 284.795 62.5546 285.366 63.83C285.936 65.1053 286.775 66.0785 287.883 66.7498C288.99 67.421 290.333 67.7566 291.91 67.7566C293.487 67.7566 294.88 67.421 296.088 66.7498C297.296 66.045 298.32 64.9878 299.159 63.5783L302.431 65.6422C301.223 67.5888 299.696 69.0655 297.85 70.0723C296.038 71.0455 293.89 71.5322 291.407 71.5322Z" fill="white"/>
</svg>
